<svg role="img" viewBox="0 0 24 24" xmlns="http://www.w3.org/2000/svg" fill="currentColor"><title>BigCommerce</title><path d="M12 0C5.373 0 0 5.373 0 12s5.373 12 12 12 12-5.373 12-12S18.627 0 12 0zm5.894 16.369a3.1 3.1 0 0 1-2.192.908H7.5V6.723h7.725a2.93 2.93 0 0 1 2.07.857 2.93 2.93 0 0 1 .857 2.07c0 .908-.404 1.721-1.039 2.275a3.09 3.09 0 0 1 1.82 2.818 3.1 3.1 0 0 1-.908 2.192c-.131.131-.131.434-.131.434zm-7.56-7.894h4.283c.434 0 .785-.352.785-.785s-.352-.785-.785-.785H10.334v1.57zm4.766 2.46H10.334v1.57H15.1c.434 0 .785-.352.785-.785s-.351-.785-.785-.785z" fill="currentColor"/></svg>
