<svg role="img" viewBox="0 0 24 24" xmlns="http://www.w3.org/2000/svg" fill="currentColor"><title>Bookshop.org</title><path d="M8.8591 15.0703c.3379 0 .6655.1094.9315.3125.2563.2031.4591.4883.5851.832.1164.3437.1457.7148.082 1.0781-.0636.3633-.2343.6953-.487.9492-.2528.2539-.585.4258-.9505.4902a2.094 2.094 0 0 1-1.0821-.082 2.0804 2.0804 0 0 1-.834-.5859 2.0505 2.0505 0 0 1-.3125-.9297c-.0097-.3418.0558-.6797.1906-.9824.1347-.3028.3516-.5665.6289-.7657.2774-.1992.5957-.3125.9311-.3281zm-8.816-1.8047C.2305 10.875.0039 8.4414.0039 5.9687 0 5.4219.043 4.875.1289 4.3242c.4219 0 .7344-.0117 1.0274-.0039 0 .1758.0195.4649.0195.91C1.1758 8.461 1.0898 10.332 0 13.2656zm15.9258-7.9687A7.8668 7.8668 0 0 0 15.75 4.5c-.0313 0-.0704.0117-.1172.0117-5.6758 0-9.7227 6.4219-11.9414 13.2305-.0977.3085-.252.5273-.457.6562a5.5324 5.5324 0 0 1-.8008.3555A4.346 4.346 0 0 1 .75 19.043a.7118.7118 0 0 0-.3477.1133c-.125.0664-.2422.1797-.3437.3321-.0313.0508-.0743.0761-.1289.0761-.0547 0-.0977-.0253-.1211-.0761a.4484.4484 0 0 1-.0586-.2305c0-.1484.082-.2813.2422-.3985.1602-.1172.3281-.1757.5078-.1757.1406 0 .3086.0351.5.1054.1914.0704.3516.1055.4844.1055.2031 0 .3868-.0508.5508-.1524.164-.1015.3008-.293.4062-.5742 1.6993-5.5273 4.4024-9.8867 7.5157-12.6914C11.5781 3.8906 13.5547 3 15.5 3c.1562 0 .3125.0117.4688.0117a.9738.9738 0 0 0 0-.2226c0-.2071.0508-.375.1484-.5118.0977-.1367.25-.2070.4493-.2070.1992 0 .3554.0703.461.211.1054.1406.1601.3125.164.5156.0039.2032-.0234.3672-.0859.4922-.625.1094-.1601.1953-.2929.2578-.1367.0586-.293.0899-.4726.0899ZM23.9883 5.75c-2.9336 7.1758-4.395 10.7617-4.395 10.7617-2.9414 1.3711-4.4023 3.6055-4.414 6.7149.0078.2539-.086.4609-.2813.625-.1953.1641-.4414.2461-.7383.2461-.2773 0-.5195-.0859-.7226-.2578-.2032-.1719-.3047-.3867-.3086-.6367.0039-1.9844.8046-3.7969 2.4023-5.4258 1.5977-1.6289 3.461-2.6094 5.5977-2.9336-.0078 0 .8203-2.5312 2.4805-7.5977C20.0664 3.1289 16.6406.2617 12.3359.2383 10.8867.2305 9.5.5469 8.1797 1.1758c-1.3281.625-2.4922 1.4844-3.4961 2.5781-1.0039 1.0938-1.7969 2.3672-2.3789 3.8086-.586 1.4375-.8789 2.9297-.879 4.4727 0 1.8242.4297 3.543 1.289 5.1562a79.283 79.283 0 0 0-1.7344 3.0782c-1.3437-2.461-2.0195-5.168-2.0195-8.1172 0-1.9453.3711-3.789 1.1172-5.5274C.836 4.7773 1.8477 3.2578 3.1562 1.957 4.461.6562 5.9766-.2891 7.6953-.875c1.7188-.5859 3.5117-.879 5.3711-.8789 2.086 0 4.0625.4102 5.9336 1.2344 1.8672.8203 3.4883 1.9258 4.8633 3.3164 1.3711 1.3906 2.4335 3.0078 3.1914 4.8515.0468.0626.0156.1134-.0664.1524Z" fill="currentColor"/></svg>