<!-- taken from memberful.com/images/logo-circle-8459cf49.svg -->
<svg width="746" height="746" viewBox="0 0 746 746" fill="none" xmlns="http://www.w3.org/2000/svg">
<path d="M373 746C579.002 746 746 579.002 746 373C746 166.998 579.002 0 373 0C166.998 0 0 166.998 0 373C0 579.002 166.998 746 373 746Z" fill="#EF5028"/>
<path d="M478.955 519.172C477.906 530.012 466.249 533.859 454.593 533.859C426.152 533.859 421.489 519.988 423.005 492.712C426.385 428.37 493.875 320.899 499.353 287.445C467.298 295.605 382.791 397.714 364.257 476.393C361.399 491.297 359.452 506.362 358.429 521.503C357.147 531.76 355.282 533.859 338.147 533.859C313.552 533.859 300.497 525.583 300.614 502.503C300.614 420.91 368.22 313.439 375.68 287.445C343.626 295.605 254.572 414.032 240.817 473.945C237.395 490.031 235.251 506.362 234.406 522.785C233.707 530.595 231.609 534.441 214.591 534.441C189.996 534.441 177.058 520.92 177.058 503.086C177.058 421.492 269.375 236.158 281.964 224.618C302.479 205.269 333.018 209.115 333.718 238.14C333.718 258.305 324.509 266.814 318.215 277.188C295.285 315.768 276.157 356.484 261.099 398.763H262.498C323.81 288.145 371.601 221.471 398.993 221.471C417.41 221.471 445.618 232.428 445.618 261.802C445.618 278.82 405.287 328.709 384.889 398.296H386.287C447.366 288.145 495.157 221.471 522.549 221.471C540.966 221.471 569.174 232.428 569.174 261.802C569.174 283.016 544.113 320.083 526.162 358.082C506.934 394.81 492.928 434.043 484.55 474.645C481.715 489.349 479.846 504.223 478.955 519.172Z" fill="white"/>
</svg>
