<?xml version="1.0" encoding="utf-8"?>
<!-- Generator: Adobe Illustrator 20.0.0, SVG Export Plug-In . SVG Version: 6.00 Build 0)  -->
<svg version="1.1" id="Layer_1" xmlns="http://www.w3.org/2000/svg" xmlns:xlink="http://www.w3.org/1999/xlink" x="0px" y="0px"
	 viewBox="0 0 360 252" style="enable-background:new 0 0 360 252;" xml:space="preserve">
<style type="text/css">
	.st0{fill:currentColor;}
	.st1{fill:none;stroke:currentColor;stroke-width:9.5;stroke-linecap:round;stroke-miterlimit:10;}
</style>
<g>
	<g>
		<g>
			<path class="st0" d="M16.7,197.3H2.6v-8.6h37.9v8.6H26.5v47.8h-9.8V197.3z"/>
			<path class="st0" d="M65.2,213.1c-1.2-0.2-2.6-0.4-4.6-0.4c-6.3,0-10,4.1-10,12.4v20h-9.3v-39.6h9.1v5.6h0.2
				c1.8-3.4,5.8-6.9,11.1-6.9c1.5,0,2.5,0.1,3.5,0.2V213.1z"/>
			<path class="st0" d="M109.6,245.1h-9v-5h-0.2c-2.7,3.4-7,6.5-13.6,6.5c-8.9,0-19-7.1-19-21.3c0-12.6,8.9-21,19.7-21
				c6.6,0,10.6,3.5,13,6.6h0.2v-5.4h9V245.1z M89.3,238.4c6.1,0,11.8-5.3,11.8-12.9c0-8-5.2-13.3-11.7-13.3
				c-8.2,0-12.1,6.6-12.1,13.1C77.3,231.9,81.1,238.4,89.3,238.4z"/>
			<path class="st0" d="M120.5,205.5h9.2v5h0.2c3.1-4.5,7.7-6.3,12.1-6.3c8.2,0,15.4,5.4,15.4,18.1v22.8h-9.3v-22.3
				c0-6.8-3.2-10.4-8.5-10.4c-5.8,0-9.8,4.1-9.8,11.8v21h-9.3V205.5z"/>
			<path class="st0" d="M185.5,215.6c-0.4-2.9-2.6-4.8-5.3-4.8c-3.2,0-5,2-5,4.2c0,2.4,1.2,4.1,8.1,6.4c8.5,2.7,11.5,7.1,11.5,12.7
				c0,7.3-5.5,12.4-14.6,12.4c-9.5,0-14.2-5.2-14.9-12.6h8.6c0.4,3.3,2.4,5.8,6.5,5.8c3.5,0,5.5-2.2,5.5-4.9c0-3-1.7-4.9-8.3-7.1
				c-7.4-2.4-11.2-6.1-11.2-12.3c0-6.5,5.1-11.3,13.5-11.3c8.5,0,13,5,14,11.5H185.5z"/>
			<path class="st0" d="M202.8,187.2h10.3v9.4h-10.3V187.2z M203.3,205.5h9.3v39.6h-9.3V205.5z"/>
			<path class="st0" d="M241.4,215.6c-0.4-2.9-2.6-4.8-5.3-4.8c-3.2,0-5,2-5,4.2c0,2.4,1.2,4.1,8.1,6.4c8.5,2.7,11.5,7.1,11.5,12.7
				c0,7.3-5.5,12.4-14.6,12.4c-9.5,0-14.2-5.2-14.9-12.6h8.6c0.4,3.3,2.4,5.8,6.5,5.8c3.5,0,5.5-2.2,5.5-4.9c0-3-1.7-4.9-8.3-7.1
				c-7.4-2.4-11.2-6.1-11.2-12.3c0-6.5,5.1-11.3,13.5-11.3c8.5,0,13,5,14,11.5H241.4z"/>
			<path class="st0" d="M254.7,205.5h5v-12.7h9.3v12.7h9.9v7.8h-9.9V231c0,5.4,1.7,6.9,5.5,6.9c1.6,0,3.4-0.3,4.8-0.7v7.5
				c-2.1,0.6-4.7,0.9-7,0.9c-9.9,0-12.5-6-12.5-14.1v-18.3h-5V205.5z"/>
			<path class="st0" d="M304.2,204.1c12.4,0,21.2,9.1,21.2,21.1c0,11.7-8.9,21.3-21.2,21.3c-12.1,0-21.2-9.3-21.2-21.3
				C283,213,292.2,204.1,304.2,204.1z M304.2,238.2c7,0,11.8-5.6,11.8-13c0-7-4.5-12.9-11.8-12.9c-7.1,0-11.8,5.5-11.8,12.9
				C292.4,232.9,297.8,238.2,304.2,238.2z"/>
			<path class="st0" d="M357.4,213.1c-1.2-0.2-2.6-0.4-4.6-0.4c-6.3,0-10,4.1-10,12.4v20h-9.3v-39.6h9.1v5.6h0.2
				c1.8-3.4,5.8-6.9,11.1-6.9c1.5,0,2.5,0.1,3.5,0.2V213.1z"/>
		</g>
		<g>
			<g>
				<g>
					<path class="st0" d="M180,125.3c-2.6,0-4.8-2.1-4.8-4.8V34.4c0-2.6,2.1-4.8,4.8-4.8s4.8,2.1,4.8,4.8v86.2
						C184.8,123.2,182.6,125.3,180,125.3z"/>
				</g>
				<g>
					<path class="st0" d="M160,82.3h-23c-2.6,0-4.8-2.1-4.8-4.8c0-2.6,2.1-4.8,4.8-4.8h23c2.6,0,4.8,2.1,4.8,4.8
						C164.7,80.1,162.6,82.3,160,82.3z"/>
				</g>
				<g>
					<path class="st0" d="M223.1,82.3h-23c-2.6,0-4.8-2.1-4.8-4.8c0-2.6,2.1-4.8,4.8-4.8h23c2.6,0,4.8,2.1,4.8,4.8
						C227.9,80.1,225.7,82.3,223.1,82.3z"/>
				</g>
			</g>
			<g>
				<path class="st0" d="M180,149.5c-39.7,0-72-32.3-72-72s32.3-72,72-72s72,32.3,72,72S219.7,149.5,180,149.5z M180,15
					c-34.4,0-62.4,28-62.4,62.4c0,34.4,28,62.4,62.4,62.4c34.4,0,62.4-28,62.4-62.4C242.4,43,214.4,15,180,15z"/>
			</g>
		</g>
	</g>
</g>
</svg>
