<svg xmlns="http://www.w3.org/2000/svg" xmlns:xlink="http://www.w3.org/1999/xlink" width="127px" height="42px" viewBox="0 0 127 42" version="1.1">
    <!-- Generator: Sketch 51.2 (57519) - http://www.bohemiancoding.com/sketch -->
    <title>( 42px ) W+SQ</title>
    <desc>Created with Sketch.</desc>
    <defs/>
    <g id="Navigation" stroke="none" stroke-width="1" fill="none" fill-rule="evenodd">
        <g id="1680---Charcoal-Redline" transform="translate(-777.000000, -16.000000)" fill="currentColor">
            <g id="(-42px-)-W+SQ" transform="translate(777.000000, 16.000000)">
                <path d="M0,37.291 C0,35.674 0.966,34.4245 2.5935,34.4245 C4.1265,34.4245 5.0925,35.527 5.0925,37.0075 C5.0925,37.1755 5.082,37.3225 5.0715,37.4275 L0.9345,37.4275 C0.945,38.6035 1.6905,39.307 2.7195,39.307 C3.3285,39.307 3.885,39.0655 4.2735,38.572 L4.872,39.118 C4.3575,39.7375 3.6225,40.126 2.667,40.126 C0.9765,40.126 0,38.908 0,37.291 Z M0.9555,36.7345 L4.179,36.7345 C4.116,35.674 3.402,35.191 2.583,35.191 C1.6485,35.191 1.029,35.8315 0.9555,36.7345 Z M12.411,33.8365 L11.6655,34.3615 C11.2035,33.658 10.479,33.2485 9.5655,33.2485 C7.9905,33.2485 7.014,34.456 7.014,36.2515 C7.014,38.0575 8.0115,39.2545 9.6075,39.2545 C10.5315,39.2545 11.1825,38.8555 11.697,38.131 L12.453,38.656 C11.7705,39.622 10.836,40.1365 9.6075,40.1365 C7.434,40.1365 6.0165,38.5195 6.0165,36.2515 C6.0165,34.0045 7.4235,32.3665 9.5655,32.3665 C10.794,32.3665 11.7705,32.902 12.411,33.8365 Z M18.4695,37.2805 C18.4695,38.908 17.4615,40.126 15.855,40.126 C14.259,40.126 13.2615,38.908 13.2615,37.2805 C13.2615,35.632 14.259,34.4245 15.855,34.4245 C17.4615,34.4245 18.4695,35.632 18.4695,37.2805 Z M17.5245,37.2805 C17.5245,36.115 16.9155,35.2225 15.855,35.2225 C14.805,35.2225 14.196,36.115 14.196,37.2805 C14.196,38.425 14.805,39.328 15.855,39.328 C16.9155,39.328 17.5245,38.425 17.5245,37.2805 Z M24.0975,40 L23.2155,40 L23.2155,36.619 C23.2155,35.8945 22.974,35.2435 22.1025,35.2435 C21.252,35.2435 20.622,35.9155 20.622,36.892 L20.622,40 L19.74,40 L19.74,34.5505 L20.622,34.5505 L20.622,35.338 C20.9895,34.7815 21.588,34.4245 22.323,34.4245 C23.079,34.4245 23.6565,34.792 23.9085,35.464 C24.276,34.897 24.948,34.4245 25.767,34.4245 C26.859,34.4245 27.5625,35.149 27.5625,36.409 L27.5625,40 L26.6805,40 L26.6805,36.619 C26.6805,35.8945 26.4495,35.2435 25.5675,35.2435 C24.7275,35.2435 24.0975,35.9155 24.0975,36.892 L24.0975,40 Z M33.4845,40 L32.6025,40 L32.6025,36.619 C32.6025,35.8945 32.361,35.2435 31.4895,35.2435 C30.639,35.2435 30.009,35.9155 30.009,36.892 L30.009,40 L29.127,40 L29.127,34.5505 L30.009,34.5505 L30.009,35.338 C30.3765,34.7815 30.975,34.4245 31.71,34.4245 C32.466,34.4245 33.0435,34.792 33.2955,35.464 C33.663,34.897 34.335,34.4245 35.154,34.4245 C36.246,34.4245 36.9495,35.149 36.9495,36.409 L36.9495,40 L36.0675,40 L36.0675,36.619 C36.0675,35.8945 35.8365,35.2435 34.9545,35.2435 C34.1145,35.2435 33.4845,35.9155 33.4845,36.892 L33.4845,40 Z M38.1675,37.291 C38.1675,35.674 39.1335,34.4245 40.761,34.4245 C42.294,34.4245 43.26,35.527 43.26,37.0075 C43.26,37.1755 43.2495,37.3225 43.239,37.4275 L39.102,37.4275 C39.1125,38.6035 39.858,39.307 40.887,39.307 C41.496,39.307 42.0525,39.0655 42.441,38.572 L43.0395,39.118 C42.525,39.7375 41.79,40.126 40.8345,40.126 C39.144,40.126 38.1675,38.908 38.1675,37.291 Z M39.123,36.7345 L42.3465,36.7345 C42.2835,35.674 41.5695,35.191 40.7505,35.191 C39.816,35.191 39.1965,35.8315 39.123,36.7345 Z M47.7015,34.6345 L47.4915,35.443 C47.334,35.3485 47.0715,35.296 46.8405,35.296 C46.0635,35.296 45.381,35.926 45.381,37.1965 L45.381,40 L44.499,40 L44.499,34.5505 L45.381,34.5505 L45.381,35.3485 C45.6855,34.8235 46.2945,34.4455 46.9665,34.4455 C47.292,34.4455 47.565,34.54 47.7015,34.6345 Z M52.9305,35.548 L52.269,36.01 C51.954,35.527 51.4605,35.233 50.841,35.233 C49.77,35.233 49.1085,36.0835 49.1085,37.27 C49.1085,38.467 49.77,39.307 50.841,39.307 C51.5025,39.307 51.9855,38.992 52.3005,38.53 L52.9515,39.0235 C52.4895,39.6745 51.7545,40.126 50.7885,40.126 C49.1925,40.126 48.174,38.8975 48.174,37.27 C48.174,35.653 49.203,34.4245 50.7885,34.4245 C51.765,34.4245 52.4895,34.8865 52.9305,35.548 Z M53.7495,37.291 C53.7495,35.674 54.7155,34.4245 56.343,34.4245 C57.876,34.4245 58.842,35.527 58.842,37.0075 C58.842,37.1755 58.8315,37.3225 58.821,37.4275 L54.684,37.4275 C54.6945,38.6035 55.44,39.307 56.469,39.307 C57.078,39.307 57.6345,39.0655 58.023,38.572 L58.6215,39.118 C58.107,39.7375 57.372,40.126 56.4165,40.126 C54.726,40.126 53.7495,38.908 53.7495,37.291 Z M54.705,36.7345 L57.9285,36.7345 C57.8655,35.674 57.1515,35.191 56.3325,35.191 C55.398,35.191 54.7785,35.8315 54.705,36.7345 Z M62.916,32.503 L63.798,32.503 L63.798,35.401 C64.239,34.7185 64.9425,34.4245 65.6565,34.4245 C67.1685,34.4245 68.124,35.653 68.124,37.27 C68.124,38.887 67.158,40.126 65.6565,40.126 C64.932,40.126 64.239,39.8215 63.798,39.1495 L63.798,40 L62.916,40 L62.916,32.503 Z M63.798,37.2805 C63.798,38.4145 64.407,39.307 65.52,39.307 C66.633,39.307 67.1895,38.4145 67.1895,37.2805 C67.1895,36.157 66.6435,35.233 65.52,35.233 C64.3965,35.233 63.798,36.157 63.798,37.2805 Z M69.2475,41.8165 L69.447,41.0815 C69.552,41.134 69.678,41.1655 69.7935,41.1655 C70.203,41.1655 70.4445,40.903 70.8015,39.979 L68.6595,34.5505 L69.657,34.5505 L71.2635,38.8765 L72.8595,34.5505 L73.8255,34.5505 L71.6205,40.1365 C71.106,41.449 70.7175,41.932 69.8985,41.932 C69.5835,41.932 69.3525,41.869 69.2475,41.8165 Z M79.3758072,42 C78.3605553,42 77.538,41.1775163 77.538,40.1613943 L77.538,32.8386057 C77.538,31.8234423 78.3605553,31 79.3758072,31 L86.7001928,31 C87.714486,31 88.538,31.8234423 88.538,32.8386057 L88.538,40.1613943 C88.538,41.1775163 87.714486,42 86.7001928,42 L79.3758072,42 Z M79.5378257,33.5805664 L79.5378257,39.4194336 C79.5378257,39.7396078 79.7966718,39.99939 80.116874,39.99939 L85.95625,39.99939 C86.2774108,39.99939 86.5372156,39.7396078 86.5372156,39.4194336 L86.5372156,33.5805664 C86.5372156,33.2594336 86.2774108,32.9996514 85.95625,32.9996514 L80.116874,32.9996514 C79.7966718,32.9996514 79.5378257,33.2594336 79.5378257,33.5805664 Z M84.2047248,35.0002614 C84.3887931,35.0002614 84.5383486,35.1498039 84.5383486,35.3357734 L84.5383486,37.6661438 C84.5383486,37.8511547 84.3887931,38.0006972 84.2047248,38.0006972 L81.8712752,38.0006972 C81.6862482,38.0006972 81.5386101,37.8511547 81.5386101,37.6661438 L81.5386101,35.3357734 C81.5386101,35.1498039 81.6862482,35.0002614 81.8712752,35.0002614 L84.2047248,35.0002614 Z M94.646,33.2275 C93.785,33.2275 93.071,33.637 93.071,34.3825 C93.071,34.8865 93.4175,35.17 93.953,35.3695 C95.129,35.821 97.4705,35.9365 97.4705,37.8685 C97.4705,39.1705 96.431,40.1365 94.7405,40.1365 C93.491,40.1365 92.462,39.601 91.895,38.7085 L92.6615,38.173 C93.176,39.0025 94.0475,39.2755 94.793,39.2755 C95.843,39.2755 96.515,38.7505 96.515,37.942 C96.515,37.0915 95.7695,36.871 94.6985,36.598 C93.47,36.3145 92.1155,35.9155 92.1155,34.4455 C92.1155,33.0805 93.3125,32.3665 94.688,32.3665 C95.759,32.3665 96.6935,32.797 97.3025,33.6055 L96.578,34.141 C96.137,33.574 95.4545,33.2275 94.646,33.2275 Z M103.823,41.827 L102.941,41.827 L102.941,39.1495 C102.4895,39.832 101.7965,40.126 101.072,40.126 C99.56,40.126 98.615,38.8975 98.615,37.2805 C98.615,35.6635 99.5705,34.4245 101.072,34.4245 C101.807,34.4245 102.4895,34.729 102.941,35.401 L102.941,34.5505 L103.823,34.5505 L103.823,41.827 Z M102.941,37.27 C102.941,36.136 102.332,35.233 101.2085,35.233 C100.106,35.233 99.5495,36.136 99.5495,37.27 C99.5495,38.3935 100.0955,39.307 101.2085,39.307 C102.3425,39.307 102.941,38.3935 102.941,37.27 Z M109.262,34.5505 L110.144,34.5505 L110.144,40 L109.262,40 L109.262,39.181 C108.884,39.748 108.2435,40.126 107.4455,40.126 C106.3115,40.126 105.5765,39.37 105.5765,38.0785 L105.5765,34.5505 L106.469,34.5505 L106.469,37.8685 C106.469,38.6245 106.7,39.2965 107.645,39.2965 C108.569,39.2965 109.262,38.614 109.262,37.585 L109.262,34.5505 Z M116.0345,40 L115.1735,40 L115.1735,39.328 C114.785,39.874 114.218,40.126 113.4935,40.126 C112.349,40.126 111.6035,39.5065 111.6035,38.467 C111.6035,37.1755 112.727,36.9445 113.4305,36.829 C114.2495,36.703 115.1525,36.64 115.1525,35.9575 C115.1525,35.3905 114.533,35.212 113.9765,35.212 C113.4305,35.212 112.7375,35.3905 112.2545,35.779 L111.8555,35.107 C112.412,34.6975 113.1995,34.4245 114.029,34.4245 C115.2155,34.4245 116.0345,34.96 116.0345,36.0835 L116.0345,40 Z M115.1525,37.858 L115.1525,37.0495 C114.7745,37.3225 114.155,37.4065 113.609,37.501 C112.979,37.6165 112.5065,37.774 112.5065,38.4145 C112.5065,39.0865 113.021,39.349 113.63,39.349 C114.407,39.349 115.1525,38.9185 115.1525,37.858 Z M121.022,34.6345 L120.812,35.443 C120.6545,35.3485 120.392,35.296 120.161,35.296 C119.384,35.296 118.7015,35.926 118.7015,37.1965 L118.7015,40 L117.8195,40 L117.8195,34.5505 L118.7015,34.5505 L118.7015,35.3485 C119.006,34.8235 119.615,34.4455 120.287,34.4455 C120.6125,34.4455 120.8855,34.54 121.022,34.6345 Z M121.7045,37.291 C121.7045,35.674 122.6705,34.4245 124.298,34.4245 C125.831,34.4245 126.797,35.527 126.797,37.0075 C126.797,37.1755 126.7865,37.3225 126.776,37.4275 L122.639,37.4275 C122.6495,38.6035 123.395,39.307 124.424,39.307 C125.033,39.307 125.5895,39.0655 125.978,38.572 L126.5765,39.118 C126.062,39.7375 125.327,40.126 124.3715,40.126 C122.681,40.126 121.7045,38.908 121.7045,37.291 Z M122.66,36.7345 L125.8835,36.7345 C125.8205,35.674 125.1065,35.191 124.2875,35.191 C123.353,35.191 122.7335,35.8315 122.66,36.7345 Z M77.8487566,8.79885714 C78.9990435,7.35771429 80.7673277,6.56971429 82.8790063,6.56971429 C87.3882438,6.56971429 90.538,10.2291429 90.538,15.4685714 C90.538,20.7457143 87.3882438,24.4314286 82.8790063,24.4314286 C80.7791689,24.4314286 79.0097569,23.6325714 77.8487566,22.1714286 L77.8487566,24.0497143 L73.538,24.0497143 L73.538,0 L77.8487566,0 L77.8487566,8.79885714 Z M81.9909172,20.612 C84.9743329,20.612 86.0372205,17.988 86.0372205,15.5325714 C86.0372205,13.0462857 84.9743329,10.3897143 81.9909172,10.3897143 C79.1298604,10.3897143 77.8487566,12.9731429 77.8487566,15.5325714 C77.8487566,18.6177143 79.4743826,20.612 81.9909172,20.612 Z M91.538,24.0502857 L91.538,0 L95.9065714,0 L95.9065714,24.0502857 L91.538,24.0502857 Z M54.6614768,14.986442 L54.6591911,16.6258706 L42.5769054,16.6258706 C42.6671911,19.0670134 44.3231911,20.5755849 46.9311911,20.5755849 C48.6860482,20.5755849 50.1706196,19.878442 51.2237625,18.5578706 L51.3203339,18.4367277 L54.1357625,21.0887277 L54.0489054,21.1921563 C52.2260482,23.3595849 49.7551911,24.458442 46.7066196,24.458442 C41.3660482,24.458442 37.9151911,20.978442 37.9151911,15.5915849 C37.9151911,10.2115849 41.3449054,6.59729916 46.4489054,6.59729916 C51.3609054,6.59729916 54.6614768,9.96872773 54.6614768,14.986442 Z M42.7157625,13.3967277 L50.4620482,13.3967277 C50.0689054,11.5270134 48.6489054,10.4161563 46.6323339,10.4161563 C44.6323339,10.4161563 43.1460482,11.5527277 42.7157625,13.3967277 Z M72.2769625,14.986442 L72.2746768,16.6258706 L60.1923911,16.6258706 C60.2826768,19.0670134 61.9386768,20.5755849 64.5466768,20.5755849 C66.3015339,20.5755849 67.7861054,19.878442 68.8392482,18.5578706 L68.9358196,18.4367277 L71.7512482,21.0887277 L71.6643911,21.1921563 C69.8415339,23.3595849 67.3706768,24.458442 64.3221054,24.458442 C58.9815339,24.458442 55.5306768,20.978442 55.5306768,15.5915849 C55.5306768,10.2115849 58.9603911,6.59729916 64.0643911,6.59729916 C68.9763911,6.59729916 72.2769625,9.96872773 72.2769625,14.986442 Z M60.3312482,13.3967277 L68.0775339,13.3967277 C67.6843911,11.5270134 66.2643911,10.4161563 64.2478196,10.4161563 C62.2478196,10.4161563 60.7615339,11.5527277 60.3312482,13.3967277 Z M33.5419339,6.97821345 L38.1825054,6.97821345 L33.5070768,24.0770706 L28.5442196,24.0770706 L25.4036482,13.0827849 L22.2007911,24.0770706 L17.2207911,24.0770706 L17.1922196,23.9713563 L12.5773625,6.97821345 L17.2493625,6.97821345 L19.8510768,17.8667849 L23.0087911,6.97821345 L27.8150768,6.97821345 L30.9722196,17.8633563 L33.5419339,6.97821345 Z M109.837778,7 L114.518349,7 L105.362349,30.9891429 L101.172064,30.9891429 L103.770921,24.0514286 L96.9977778,7 L101.906921,7 L105.887492,18.3942857 L109.837778,7 Z" id="Don't-upgroup"/>
            </g>
        </g>
    </g>
<script xmlns=""/></svg>
